# xmcd
#
# Track frame offsets:
#	150
#	16757
#	28835
#	47957
#	63677
#	80492
#	96982
#	109332
#	129872
#	143175
#	161535
#	177700
#
# Disc length: 2615 seconds
#
# Revision: 0
# Processed by: cddbd v1.5.1PL0 Copyright (c) Steve Scherf et al.
# Submitted via: EasyCDDAExtractor 4.6.0.1
#
DISCID=a80a350c
DTITLE=Caballo Dorado
DYEAR=1994
DGENRE=Country
TTITLE0=No Rompas Mi Corazón
TTITLE1=Niegalo
TTITLE2=Payaso de Rodeo
TTITLE3=Olvidarte
TTITLE4=Carretara 54
TTITLE5=El Mismo Bar
TTITLE6=Vaquera Sexy
TTITLE7=Un Chico Loco
TTITLE8=Tocando Mi Violin
TTITLE9=Sere Tuyo Nadamas
TTITLE10=El Diablo Bajo a Gerogia
TTITLE11=Tristes Recuerdos
EXTD=
EXTT0=
EXTT1=
EXTT2=
EXTT3=
EXTT4=
EXTT5=
EXTT6=
EXTT7=
EXTT8=
EXTT9=
EXTT10=
EXTT11=
PLAYORDER=
